<svg xmlns="http://www.w3.org/2000/svg" viewBox="0 0 130 28.89"><title>logo-afficha</title><path d="M19.26,10.21c0-1.91-1.64-2.72-3.47-2.72H.86v2.69H12.2c.88,0,1.59.32,1.59,1.31V12H3a2.79,2.79,0,0,0-3,2.78V18a2.9,2.9,0,0,0,3,2.86H19.25ZM5.35,16.3C5.35,15.59,5.77,15,7,15h6.94v3.21H7c-1.36,0-1.65-.78-1.65-1.19Z"/><path d="M69.13,14.08v6.78H74.9V7.49H69.13l-8.29,8.73s0-.69,0-1.56V7.49H55.1V20.86h5.77L69.17,12s0,1.35,0,2.05"/><polygon points="108.07 7.49 102.36 7.49 102.36 18.19 95.7 18.19 95.7 7.49 89.98 7.49 89.98 18.19 83.31 18.19 83.31 7.49 77.57 7.49 77.57 20.86 108.07 20.86 108.07 7.49"/><path d="M47.08,16.73a1.41,1.41,0,0,1-1.58,1.46H40.12v-8H45.5a1.41,1.41,0,0,1,1.58,1.46ZM34.24,18.19H28.86a1.41,1.41,0,0,1-1.58-1.46V11.62a1.41,1.41,0,0,1,1.58-1.46h5.38ZM49,7.54H40V0H34.36V7.54h-9c-1.83,0-3.46.83-3.46,2.79v8c0,2,1.63,3,3.46,3h9v7.54H40V21.35h9c1.83,0,3.46-1,3.46-3v-8c0-2-1.63-2.79-3.46-2.79Z"/><path d="M130,10.21c0-1.91-1.64-2.72-3.47-2.72H111.6v2.69h11.34c.88,0,1.59.32,1.59,1.31V12H113.73a2.79,2.79,0,0,0-3,2.78V18a2.9,2.9,0,0,0,3,2.86H130ZM116.09,16.3c0-.71.41-1.32,1.62-1.32h6.94v3.21h-6.91c-1.36,0-1.65-.78-1.65-1.19Z"/></svg>