<svg viewBox="0 0 88 31" fill="none" xmlns="http://www.w3.org/2000/svg" class="header__logo-svg"><path d="M35.864 19.912l9.155 10.562H38.2l-5.454-5.93-1.385 2.099v3.83h-5.346V0h5.346v16.968l.8-1.212 6.04-8.657h6.103l-8.441 12.813zm20.453 0L65.86 30.69h-7.207L53.2 24.543l-1.407 2.1v4.047h-5.302V0h5.345v16.968l.801-1.212L58.676 7.1h6.752l-9.111 12.813z" fill="#000"></path><path d="M87.221 18.785c0 6.45-5.194 11.687-11.6 11.687-6.407 0-11.602-5.237-11.602-11.687 0-6.45 5.195-11.687 11.601-11.687 6.407 0 11.601 5.216 11.601 11.687zm-11.6 6.276c3.57 0 6.449-2.9 6.449-6.492 0-3.593-2.879-6.493-6.45-6.493-3.57 0-6.45 2.9-6.45 6.492 0 3.593 2.88 6.493 6.45 6.493zM11.6 7.1c6.407 0 11.601 5.237 11.601 11.687 0 6.45-5.194 11.687-11.6 11.687C5.194 30.474 0 25.237 0 18.787 0 12.316 5.194 7.1 11.6 7.1zm0 5.194c-3.57 0-6.449 2.9-6.449 6.493 0 3.593 2.879 6.493 6.45 6.493 3.57 0 6.45-2.9 6.45-6.493 0-3.593-2.88-6.493-6.45-6.493zM11.84 0a2.688 2.688 0 012.683 2.705c0 1.494-1.212 2.706-2.684 2.706a2.688 2.688 0 01-2.683-2.706A2.674 2.674 0 0111.839 0zm7.033 0a2.688 2.688 0 012.684 2.705c0 1.494-1.212 2.706-2.684 2.706a2.688 2.688 0 01-2.683-2.706A2.688 2.688 0 0118.873 0zM4.805 0A2.688 2.688 0 017.49 2.705c0 1.494-1.212 2.706-2.684 2.706a2.688 2.688 0 01-2.683-2.706A2.688 2.688 0 014.805 0z" fill="#000"></path></svg>