<svg viewBox="0 0 96 76" fill="none" xmlns="http://www.w3.org/2000/svg">
<path d="M94.8293 0H1.17073C0.524488 0 0 0.524488 0 1.17073V59.4591C0 60.1065 0.524488 60.6299 1.17073 60.6299H94.8293C95.4767 60.6299 96 60.1065 96 59.4591V1.17073C96 0.524488 95.4767 0 94.8293 0ZM93.6585 58.2884H2.34146V2.34146H93.6585V58.2884Z" fill="black"/>
<path d="M94.8293 68.8431H27.1949C26.6494 66.1938 24.2997 64.1953 21.4923 64.1953C18.6849 64.1953 16.3352 66.1938 15.7897 68.8431H1.17073C0.524488 68.8431 0 69.3664 0 70.0139C0 70.6613 0.524488 71.1846 1.17073 71.1846H15.7873C16.3293 73.8386 18.6802 75.8417 21.4911 75.8417C24.3032 75.8417 26.6541 73.8386 27.1961 71.1846H94.8293C95.4767 71.1846 96 70.6613 96 70.0139C96 69.3664 95.4767 68.8431 94.8293 68.8431ZM21.4911 73.5003C19.5723 73.5003 18.0105 71.9385 18.0105 70.0185C18.0105 68.0985 19.5723 66.5368 21.4911 66.5368C23.4088 66.5368 24.9682 68.095 24.9717 70.0115C24.9717 70.0127 24.9717 70.0127 24.9717 70.0139C24.9717 70.0162 24.9729 70.0174 24.9729 70.0197C24.9729 71.9385 23.4111 73.5003 21.4911 73.5003Z" fill="black"/>
<rect x="2" y="2" width="92" height="57" fill="black"/>
<circle cx="48.2745" cy="29.274" r="15.2745" fill="white"/>
</svg>
